<svg width="889" height="478" viewBox="0 0 889 478" fill="none" xmlns="http://www.w3.org/2000/svg">
<g clip-path="url(#clip0_9_3)">
<rect width="889" height="478" fill="white"/>
<path d="M26.1366 20.367V30.1348H17.9578V61.9322H8.71219V29.927H0.533386V20.367H26.1366Z" fill="#EB4245"/>
<path d="M38.4048 20.367V35.9539H46.7614V20.367H56.007V61.9322H46.7614V45.7217H38.4048V61.9322H29.1592V20.367H38.4048Z" fill="#EB4245"/>
<path d="M70.0532 20.367V61.9322H60.8076V20.367H70.0532Z" fill="#EB4245"/>
<path d="M99.0346 31.7974V33.6678H90.3224V31.7974C90.3224 29.5113 89.2556 27.8487 86.5886 27.8487C84.0994 27.8487 82.8548 29.3035 82.8548 30.9661C82.8548 33.0443 84.0994 34.2913 89.4334 36.7852C96.901 40.1104 99.3902 43.2278 99.3902 49.8783C99.3902 57.7756 94.7674 62.5556 86.233 62.5556C76.9874 62.5556 73.4314 57.36 73.4314 50.0861V47.8H82.3214V49.4626C82.3214 52.3722 83.566 54.2426 86.4108 54.2426C89.0778 54.2426 90.3224 52.7878 90.3224 50.9174C90.3224 48.6313 89.0778 47.5922 83.7438 44.8904C76.454 41.5652 73.787 38.24 73.787 32.0052C73.787 24.9391 78.4098 19.7435 86.5886 19.7435C95.3008 19.5356 99.0346 24.5235 99.0346 31.7974Z" fill="#EB4245"/>
<path d="M119.659 20.367V61.9322H110.414V20.367H119.659Z" fill="#EB4245"/>
<path d="M148.641 31.7974V33.6678H139.929V31.7974C139.929 29.5113 138.862 27.8487 136.195 27.8487C133.706 27.8487 132.461 29.3035 132.461 30.9661C132.461 33.0443 133.706 34.2913 139.04 36.7852C146.507 40.1104 148.996 43.2278 148.996 49.8783C148.996 57.7756 144.374 62.5556 135.839 62.5556C126.594 62.5556 123.038 57.36 123.038 50.0861V47.8H131.928V49.4626C131.928 52.3722 133.172 54.2426 136.017 54.2426C138.684 54.2426 139.929 52.7878 139.929 50.9174C139.929 48.6313 138.684 47.5922 133.35 44.8904C126.06 41.5652 123.393 38.24 123.393 32.0052C123.393 24.9391 128.016 19.7435 136.195 19.7435C144.907 19.5356 148.641 24.5235 148.641 31.7974Z" fill="#EB4245"/>
<g filter="url(#filter0_d_9_3)">
<path d="M39.116 264.355L70.9422 340.835H71.2978L70.9422 264.355H97.79V402.767H67.9196L35.56 324.832H35.2044L35.7378 402.767H8.71219V264.355H39.116Z" fill="#A4133C"/>
<path d="M167.843 380.114H135.661L131.039 402.767H102.591L134.595 263.731H170.866L203.048 402.767H172.466L167.843 380.114ZM140.995 354.343H162.687L152.197 302.595H151.841L140.995 354.343Z" fill="#A4133C"/>
<path d="M277.546 264.355V296.568H250.342V402.767H219.583V296.568H192.024V264.355H277.546Z" fill="#A4133C"/>
<path d="M317.017 264.355V402.767H286.258V264.355H317.017Z" fill="#A4133C"/>
<path d="M420.319 313.194V353.928C420.319 386.141 401.65 405.884 374.269 405.884C347.066 405.884 328.219 386.141 328.219 353.928V313.194C328.219 280.981 347.066 261.237 374.269 261.237C401.65 261.237 420.319 280.981 420.319 313.194ZM359.334 312.778V354.343C359.334 368.891 365.201 375.126 374.269 375.126C383.337 375.126 389.382 368.891 389.382 354.343V312.778C389.382 298.23 383.337 291.996 374.269 291.996C365.201 291.996 359.334 298.23 359.334 312.778Z" fill="#A4133C"/>
<path d="M461.391 264.355L493.217 340.835H493.573L493.217 264.355H520.065V402.767H490.195L457.835 324.832H457.479L458.013 402.767H430.987V264.355H461.391Z" fill="#A4133C"/>
</g>
<path d="M553.847 41.1496H549.935L568.249 61.9322H571.983L553.847 41.1496Z" fill="#BABDBB"/>
<path d="M325.018 41.1496H321.107L339.42 61.9322H343.154L325.018 41.1496Z" fill="#BABDBB"/>
<path d="M782.676 41.1496H778.764L797.077 61.9322H800.811L782.676 41.1496Z" fill="#BABDBB"/>
<path d="M178.867 48.4235V52.58L186.868 61.9322H190.779L178.867 48.4235Z" fill="#BABDBB"/>
<path d="M630.123 41.1496H626.212L644.525 61.9322H648.259L630.123 41.1496Z" fill="#BABDBB"/>
<path d="M401.295 41.1496H397.383L415.696 61.9322H419.43L401.295 41.1496Z" fill="#BABDBB"/>
<path d="M858.952 41.1496H855.04L865.175 52.58V48.2157L858.952 41.1496Z" fill="#BABDBB"/>
<path d="M248.742 41.1496H244.831L263.144 61.9322H267.056L248.742 41.1496Z" fill="#BABDBB"/>
<path d="M706.399 41.1496H702.488L720.801 61.9322H724.535L706.399 41.1496Z" fill="#BABDBB"/>
<path d="M477.571 41.1496H473.659L491.973 61.9322H495.706L477.571 41.1496Z" fill="#BABDBB"/>
<path d="M591.896 41.1496H588.162L606.298 61.9322H610.21L591.896 41.1496Z" fill="#BABDBB"/>
<path d="M363.068 41.1496H359.334L377.469 61.9322H381.381L363.068 41.1496Z" fill="#BABDBB"/>
<path d="M820.725 41.1496H816.991L835.127 61.9322H839.038L820.725 41.1496Z" fill="#BABDBB"/>
<path d="M210.515 41.1496H206.781L225.095 61.9322H228.829L210.515 41.1496Z" fill="#BABDBB"/>
<path d="M668.172 41.1496H664.439L682.574 61.9322H686.486L668.172 41.1496Z" fill="#BABDBB"/>
<path d="M439.344 41.1496H435.61L453.746 61.9322H457.657L439.344 41.1496Z" fill="#BABDBB"/>
<path d="M286.791 41.1496H283.058L301.371 61.9322H305.105L286.791 41.1496Z" fill="#BABDBB"/>
<path d="M744.449 41.1496H740.715L758.85 61.9322H762.762L744.449 41.1496Z" fill="#BABDBB"/>
<path d="M515.62 41.1496H511.886L530.022 61.9322H533.933L515.62 41.1496Z" fill="#BABDBB"/>
<path d="M566.471 41.1496H562.737L580.873 61.9322H584.784L566.471 41.1496Z" fill="#BABDBB"/>
<path d="M337.642 41.1496H333.908L352.222 61.9322H355.956L337.642 41.1496Z" fill="#BABDBB"/>
<path d="M795.299 41.1496H791.566L809.701 61.9322H813.613L795.299 41.1496Z" fill="#BABDBB"/>
<path d="M199.669 61.9322H203.403L185.09 41.1496H181.356L199.669 61.9322Z" fill="#BABDBB"/>
<path d="M642.747 41.1496H639.013L657.149 61.9322H661.06L642.747 41.1496Z" fill="#BABDBB"/>
<path d="M413.918 41.1496H410.185L428.32 61.9322H432.232L413.918 41.1496Z" fill="#BABDBB"/>
<path d="M261.366 41.1496H257.632L275.946 61.9322H279.679L261.366 41.1496Z" fill="#BABDBB"/>
<path d="M719.023 41.1496H715.289L733.425 61.9322H737.337L719.023 41.1496Z" fill="#BABDBB"/>
<path d="M490.195 41.1496H486.461L504.596 61.9322H508.508L490.195 41.1496Z" fill="#BABDBB"/>
<path d="M604.698 41.1496H600.786L619.1 61.9322H622.833L604.698 41.1496Z" fill="#BABDBB"/>
<path d="M375.869 41.1496H371.958L390.271 61.9322H394.005L375.869 41.1496Z" fill="#BABDBB"/>
<path d="M833.526 41.1496H829.615L847.928 61.9322H851.662L833.526 41.1496Z" fill="#BABDBB"/>
<path d="M223.317 41.1496H219.405L237.719 61.9322H241.63L223.317 41.1496Z" fill="#BABDBB"/>
<path d="M680.974 41.1496H677.062L695.376 61.9322H699.11L680.974 41.1496Z" fill="#BABDBB"/>
<path d="M452.145 41.1496H448.234L466.547 61.9322H470.281L452.145 41.1496Z" fill="#BABDBB"/>
<path d="M299.593 41.1496H295.681L313.995 61.9322H317.906L299.593 41.1496Z" fill="#BABDBB"/>
<path d="M757.25 41.1496H753.339L771.652 61.9322H775.386L757.25 41.1496Z" fill="#BABDBB"/>
<path d="M528.422 41.1496H524.51L542.823 61.9322H546.557L528.422 41.1496Z" fill="#BABDBB"/>
<path d="M579.272 41.1496H575.361L593.674 61.9322H597.408L579.272 41.1496Z" fill="#BABDBB"/>
<path d="M350.444 41.1496H346.532L364.846 61.9322H368.579L350.444 41.1496Z" fill="#BABDBB"/>
<path d="M808.101 41.1496H804.189L822.503 61.9322H826.237L808.101 41.1496Z" fill="#BABDBB"/>
<path d="M197.891 41.1496H194.158L212.293 61.9322H216.205L197.891 41.1496Z" fill="#BABDBB"/>
<path d="M655.549 41.1496H651.637L669.95 61.9322H673.684L655.549 41.1496Z" fill="#BABDBB"/>
<path d="M426.72 41.1496H422.808L441.122 61.9322H444.856L426.72 41.1496Z" fill="#BABDBB"/>
<path d="M274.168 41.1496H270.256L288.569 61.9322H292.481L274.168 41.1496Z" fill="#BABDBB"/>
<path d="M731.825 41.1496H727.913L746.227 61.9322H749.96L731.825 41.1496Z" fill="#BABDBB"/>
<path d="M502.996 41.1496H499.085L517.398 61.9322H521.132L502.996 41.1496Z" fill="#BABDBB"/>
<path d="M617.322 41.1496H613.588L631.723 61.9322H635.635L617.322 41.1496Z" fill="#BABDBB"/>
<path d="M388.493 41.1496H384.759L402.895 61.9322H406.806L388.493 41.1496Z" fill="#BABDBB"/>
<path d="M846.15 41.1496H842.416L860.552 61.9322H864.464L846.15 41.1496Z" fill="#BABDBB"/>
<path d="M235.941 41.1496H232.207L250.52 61.9322H254.254L235.941 41.1496Z" fill="#BABDBB"/>
<path d="M693.598 41.1496H689.864L708 61.9322H711.911L693.598 41.1496Z" fill="#BABDBB"/>
<path d="M464.769 41.1496H461.035L479.171 61.9322H483.083L464.769 41.1496Z" fill="#BABDBB"/>
<path d="M312.217 41.1496H308.483L326.796 61.9322H330.53L312.217 41.1496Z" fill="#BABDBB"/>
<path d="M769.874 41.1496H766.14L784.276 61.9322H788.187L769.874 41.1496Z" fill="#BABDBB"/>
<path d="M541.045 41.1496H537.312L555.447 61.9322H559.359L541.045 41.1496Z" fill="#BABDBB"/>
<path d="M424.053 442.254H420.141L440.233 465.115H444.144L424.053 442.254Z" fill="#BABDBB"/>
<path d="M195.224 442.254H191.313L211.404 465.115H215.316L195.224 442.254Z" fill="#BABDBB"/>
<path d="M652.882 442.254H648.97L669.061 465.115H672.973L652.882 442.254Z" fill="#BABDBB"/>
<path d="M42.672 442.254H38.9382L58.8518 465.115H62.7634L42.672 442.254Z" fill="#BABDBB"/>
<path d="M500.329 442.254H496.418L516.509 465.115H520.421L500.329 442.254Z" fill="#BABDBB"/>
<path d="M271.501 442.254H267.589L287.68 465.115H291.592L271.501 442.254Z" fill="#BABDBB"/>
<path d="M729.158 442.254H725.246L745.338 465.115H749.071L729.158 442.254Z" fill="#BABDBB"/>
<path d="M118.948 442.254H115.037L135.128 465.115H139.04L118.948 442.254Z" fill="#BABDBB"/>
<path d="M576.605 442.254H572.694L592.785 465.115H596.697L576.605 442.254Z" fill="#BABDBB"/>
<path d="M347.777 442.254H343.865L363.957 465.115H367.868L347.777 442.254Z" fill="#BABDBB"/>
<path d="M805.434 442.254H801.522L821.614 465.115H825.348L805.434 442.254Z" fill="#BABDBB"/>
<path d="M4.6228 442.254V446.618L20.8026 465.115H24.5364L4.6228 442.254Z" fill="#BABDBB"/>
<path d="M462.102 442.254H458.368L478.46 465.115H482.194L462.102 442.254Z" fill="#BABDBB"/>
<path d="M233.274 442.254H229.54L249.631 465.115H253.365L233.274 442.254Z" fill="#BABDBB"/>
<path d="M690.931 442.254H687.197L707.288 465.115H711.022L690.931 442.254Z" fill="#BABDBB"/>
<path d="M80.7212 442.254H76.9874L97.0788 465.115H100.813L80.7212 442.254Z" fill="#BABDBB"/>
<path d="M538.378 442.254H534.645L554.736 465.115H558.47L538.378 442.254Z" fill="#BABDBB"/>
<path d="M309.55 442.254H305.816L325.907 465.115H329.641L309.55 442.254Z" fill="#BABDBB"/>
<path d="M767.207 442.254H763.473L783.387 465.115H787.298L767.207 442.254Z" fill="#BABDBB"/>
<path d="M156.997 442.254H153.264L173.355 465.115H177.089L156.997 442.254Z" fill="#BABDBB"/>
<path d="M614.655 442.254H610.921L631.012 465.115H634.746L614.655 442.254Z" fill="#BABDBB"/>
<path d="M385.826 442.254H382.092L402.184 465.115H405.917L385.826 442.254Z" fill="#BABDBB"/>
<path d="M843.483 442.254H839.749L859.663 465.115H863.575L843.483 442.254Z" fill="#BABDBB"/>
<path d="M436.677 442.254H432.943L453.034 465.115H456.768L436.677 442.254Z" fill="#BABDBB"/>
<path d="M207.848 442.254H204.114L224.206 465.115H227.94L207.848 442.254Z" fill="#BABDBB"/>
<path d="M665.505 442.254H661.772L681.863 465.115H685.597L665.505 442.254Z" fill="#BABDBB"/>
<path d="M55.2958 442.254H51.562L71.6534 465.115H75.3872L55.2958 442.254Z" fill="#BABDBB"/>
<path d="M512.953 442.254H509.219L529.311 465.115H533.044L512.953 442.254Z" fill="#BABDBB"/>
<path d="M284.124 442.254H280.391L300.482 465.115H304.216L284.124 442.254Z" fill="#BABDBB"/>
<path d="M741.782 442.254H738.048L758.139 465.115H761.873L741.782 442.254Z" fill="#BABDBB"/>
<path d="M131.572 442.254H127.838L147.93 465.115H151.663L131.572 442.254Z" fill="#BABDBB"/>
<path d="M589.229 442.254H585.495L605.587 465.115H609.321L589.229 442.254Z" fill="#BABDBB"/>
<path d="M360.401 442.254H356.667L376.758 465.115H380.492L360.401 442.254Z" fill="#BABDBB"/>
<path d="M818.058 442.254H814.324L834.238 465.115H838.149L818.058 442.254Z" fill="#BABDBB"/>
<path d="M33.4264 465.115H37.338L17.2466 442.254H13.5128L33.4264 465.115Z" fill="#BABDBB"/>
<path d="M474.904 442.254H470.992L491.084 465.115H494.995L474.904 442.254Z" fill="#BABDBB"/>
<path d="M246.075 442.254H242.164L262.255 465.115H266.167L246.075 442.254Z" fill="#BABDBB"/>
<path d="M703.732 442.254H699.821L719.912 465.115H723.824L703.732 442.254Z" fill="#BABDBB"/>
<path d="M93.5228 442.254H89.6112L109.703 465.115H113.614L93.5228 442.254Z" fill="#BABDBB"/>
<path d="M551.18 442.254H547.268L567.36 465.115H571.271L551.18 442.254Z" fill="#BABDBB"/>
<path d="M322.351 442.254H318.44L338.531 465.115H342.443L322.351 442.254Z" fill="#BABDBB"/>
<path d="M780.009 442.254H776.097L796.188 465.115H799.922L780.009 442.254Z" fill="#BABDBB"/>
<path d="M169.799 442.254H165.887L185.979 465.115H189.89L169.799 442.254Z" fill="#BABDBB"/>
<path d="M627.456 442.254H623.545L643.636 465.115H647.548L627.456 442.254Z" fill="#BABDBB"/>
<path d="M398.628 442.254H394.716L414.807 465.115H418.719L398.628 442.254Z" fill="#BABDBB"/>
<path d="M856.285 442.254H852.373L865.175 456.594V452.437L856.285 442.254Z" fill="#BABDBB"/>
<path d="M4.6228 456.802V461.166L8.001 465.115H11.9126L4.6228 456.802Z" fill="#BABDBB"/>
<path d="M449.478 442.254H445.567L465.658 465.115H469.57L449.478 442.254Z" fill="#BABDBB"/>
<path d="M220.65 442.254H216.738L236.83 465.115H240.741L220.65 442.254Z" fill="#BABDBB"/>
<path d="M678.307 442.254H674.395L694.487 465.115H698.398L678.307 442.254Z" fill="#BABDBB"/>
<path d="M68.0974 442.254H64.1858L84.2772 465.115H88.1888L68.0974 442.254Z" fill="#BABDBB"/>
<path d="M525.755 442.254H521.843L541.934 465.115H545.846L525.755 442.254Z" fill="#BABDBB"/>
<path d="M296.926 442.254H293.014L313.106 465.115H317.017L296.926 442.254Z" fill="#BABDBB"/>
<path d="M754.583 442.254H750.672L770.763 465.115H774.497L754.583 442.254Z" fill="#BABDBB"/>
<path d="M144.374 442.254H140.462L160.553 465.115H164.465L144.374 442.254Z" fill="#BABDBB"/>
<path d="M602.031 442.254H598.119L618.211 465.115H622.122L602.031 442.254Z" fill="#BABDBB"/>
<path d="M373.202 442.254H369.291L389.382 465.115H393.294L373.202 442.254Z" fill="#BABDBB"/>
<path d="M830.859 442.254H826.948L847.039 465.115H850.773L830.859 442.254Z" fill="#BABDBB"/>
<path d="M30.0482 442.254H26.1366L46.228 465.115H49.9618L30.0482 442.254Z" fill="#BABDBB"/>
<path d="M487.528 442.254H483.794L503.885 465.115H507.619L487.528 442.254Z" fill="#BABDBB"/>
<path d="M258.699 442.254H254.965L275.057 465.115H278.79L258.699 442.254Z" fill="#BABDBB"/>
<path d="M716.356 442.254H712.622L732.714 465.115H736.448L716.356 442.254Z" fill="#BABDBB"/>
<path d="M106.147 442.254H102.413L122.504 465.115H126.238L106.147 442.254Z" fill="#BABDBB"/>
<path d="M563.804 442.254H560.07L580.161 465.115H583.895L563.804 442.254Z" fill="#BABDBB"/>
<path d="M334.975 442.254H331.241L351.333 465.115H355.067L334.975 442.254Z" fill="#BABDBB"/>
<path d="M792.632 442.254H788.899L808.812 465.115H812.724L792.632 442.254Z" fill="#BABDBB"/>
<path d="M182.423 442.254H178.689L198.78 465.115H202.514L182.423 442.254Z" fill="#BABDBB"/>
<path d="M640.08 442.254H636.346L656.438 465.115H660.171L640.08 442.254Z" fill="#BABDBB"/>
<path d="M411.251 442.254H407.518L427.609 465.115H431.343L411.251 442.254Z" fill="#BABDBB"/>
<path d="M734.816 367.964C729.408 368.652 724.209 369.464 719.184 370.225C703.028 372.643 688.019 375.278 674.158 378.129C666.46 381.374 662.922 383.183 661.406 384.947L661.472 385.301C661.604 386.009 661.736 386.717 661.9 387.602C691.011 382.418 720.003 378.577 748.843 375.904C743.706 374.081 738.961 371.393 734.816 367.964Z" fill="black"/>
<path d="M649.41 379.725C616.666 386.947 592.204 394.324 575.775 399.578L573.574 403.463C599.873 396.101 626.083 390.211 652.313 385.4C651.403 383.492 650.493 381.584 649.41 379.725Z" fill="black"/>
<path d="M659.22 320.76C657.399 321.856 655.61 323.127 653.789 324.223C646.221 329.062 637.878 334.687 630.963 337.109C630.091 337.368 629.393 337.575 628.52 337.834C623.11 339.439 617.536 340.166 612.18 340.088C585.11 352.935 568.687 362.624 560.355 367.319L558.012 371.534C588.832 356.092 620.33 342.301 652.298 330.038C654.456 326.805 656.821 323.694 659.22 320.76Z" fill="black"/>
<path d="M581.489 379.525L584.337 376.997L583.506 376.5L582.884 376.128L586.604 373.339L587.445 372.901L587.652 373.025C587.652 373.025 588.209 373.045 588.625 373.294C590.032 371.942 591.68 370.89 593.601 370.316C594.791 369.774 595.937 369.991 596.975 370.612L600.782 366.307C589.376 371.392 566.248 381.845 546.603 392.187L544.751 396.095C558.994 389.416 572.736 384.004 582.702 380.095L581.489 379.525Z" fill="black"/>
<path d="M815.215 277.448C816.491 278.229 817.766 279.011 818.897 280.04C823.277 280.2 827.401 281.045 831.305 282.763C828.516 279.877 825.046 277.415 821.5 275.579C818.771 274.074 815.752 273.066 812.444 272.553L812.333 272.99C814.102 274.41 815.301 275.818 815.215 277.448Z" fill="black"/>
<path d="M857.853 310.625L860.058 311.464C860.717 308.942 867.814 305.912 867.934 304.525C861.682 300.928 855.606 297.274 847.92 292.977C847.292 292.599 847.456 290.428 846.794 289.868C843.552 287.431 840.233 285.598 836.451 284.297C831.865 282.674 824.434 280.8 822.528 281.6C821.381 280.424 820.058 279.303 818.624 278.604C813.795 276.673 808.603 275.821 803.434 276.117L803.357 276.72C804.683 280.922 809.366 280.009 807.748 283.414C776.868 289.005 753.953 305.548 742.976 306.731C727.987 308.419 686.278 307.823 661.069 322.014C646.326 330.175 640.765 337.532 626.969 342.695C602.87 351.715 591.01 336.8 591.01 336.8L590.581 337.515C598.306 351.241 616.977 350.307 630.244 345.313C643.369 340.557 663.274 322.853 668.686 322.864C657.845 330.939 645.815 355 645.815 355C641.363 357.188 616.899 364.205 612.235 363.184L596.046 381.825C594.592 383.059 594.668 382.456 593.797 381.77C593.135 381.21 589.752 382.095 587.153 385.234C586.591 385.22 586.205 385.151 585.61 384.955L584.299 385.95L585.975 386.958C585.865 387.378 585.546 387.673 585.436 388.093C585.259 388.149 585.116 388.387 585.149 388.569C584.587 388.556 584.168 388.304 584.168 388.304L582.89 389.481L584.147 390.237C584.181 390.419 584.038 390.657 584.038 390.657C583.928 391.078 583.994 391.442 583.884 391.862C583.498 391.792 583.289 391.666 583.289 391.666L582.187 392.788L584.073 393.922C584.206 394.65 584.515 395.322 584.967 395.757C586.786 396.526 591.559 397.126 592.737 395.402C599.663 385.298 612.52 376.003 612.52 376.003C612.52 376.003 642.816 369.249 657.985 373.669L665.654 369.687C665.654 369.687 665.324 370.948 660.609 374.761C656.82 377.508 653.03 380.256 649.141 382.458C653.113 388.9 655.918 396.1 657.312 403.748C657.345 403.93 657.411 404.295 657.588 404.239C659.527 403.621 656.675 407.419 659.828 408.342C660.038 408.468 659.741 409.911 659.984 410.22C660.855 410.906 661.903 411.536 663.093 411.927C663.16 412.291 663.017 412.53 663.083 412.894L664.164 413.706L664.747 411.786C665.186 410.105 665.416 408.298 665.294 406.602C665.261 406.42 665.999 406.378 665.999 406.378C666.331 408.199 666.134 410.188 665.728 412.052C665.937 412.178 666.114 412.122 666.29 412.066C666.323 412.248 666.356 412.43 666.356 412.43L667.018 412.99L667.205 411.967C667.578 409.922 667.775 407.932 667.41 405.929C667.377 405.747 668.115 405.704 668.115 405.704C668.623 407.469 668.569 409.221 668.163 411.084C668.339 411.028 668.339 411.028 668.516 410.972C668.582 411.336 668.648 411.7 668.648 411.7L668.748 412.247L669.188 410.565C669.495 408.155 668.941 404.093 668.169 403.953C665.611 403.226 663.439 402.568 662.216 401.995C660.934 397.008 659.11 390.074 658.313 385.703C660.493 382.312 666.642 379.199 685.804 371.75C687.588 369.255 689.886 361.395 689.87 353.115C689.933 334.02 696.403 333.694 703.603 337.375C714.751 343.268 735.958 374.667 754.762 374.462C754.762 374.462 765.372 368.194 771.395 360.304C772.928 361.55 774.175 363.272 775.069 365.107C777 368.539 778.083 372.433 778.461 376.552C785.557 373.522 800.571 376.064 806.954 377.308C825.155 380.956 833.809 383.403 833.809 383.403C832.631 385.127 845.317 385.135 848.537 386.422C850.146 387.066 849.651 387.416 849.464 388.439C849.277 389.462 851.704 392.543 855.706 393.003C855.805 393.549 855.872 393.913 855.971 394.46L857.405 395.16L857.568 392.988C857.745 392.932 857.921 392.876 858.131 393.002C858.516 393.072 859.079 393.085 859.464 393.155C859.564 393.701 859.63 394.066 859.63 394.066L861.031 394.583L861.228 392.594C861.723 392.243 862.429 392.019 862.924 391.668C862.991 392.033 863.024 392.215 863.024 392.215L864.6 392.676L864.698 390.14C865.017 389.846 865.127 389.426 865.27 389.188C865.225 386.89 863.028 382.002 861.308 381.778C854.011 380.633 846.79 378.885 839.679 376.717C828.477 372.576 814.189 367.876 813.052 365.733C813.052 365.733 842.883 356.43 852.228 353.455C855.425 353.594 858.445 353.788 861.565 354.529C861.731 355.44 861.864 356.168 861.853 357.135C863.133 359.04 865.019 360.173 867.124 360.467C867.191 360.831 867.466 361.321 867.533 361.685L869.109 362.147L869.064 359.849C869.118 358.098 868.786 356.277 868.134 354.75C868.101 354.568 868.806 354.344 868.806 354.344C869.667 355.996 870.032 357.999 870.188 359.877C870.574 359.947 870.96 360.016 871.312 359.904C871.412 360.451 871.478 360.815 871.478 360.815L872.845 361.15L872.866 359.217C872.677 357.158 872.279 354.972 871.208 353.194C870.999 353.068 871.847 352.605 871.88 352.787C872.918 354.384 873.459 356.331 873.648 358.39C873.824 358.334 874.001 358.278 874.144 358.039L874.42 358.53L875.368 358.613L875.322 356.316C874.89 353.948 872.474 349.901 871.03 350.168C867.018 350.674 861.098 348.898 855.277 347.668C850.284 347.908 843.837 349.382 834.789 350.914C826.446 352.221 806.454 355.117 806.454 355.117C804.614 356.281 796.835 344.306 793.061 338.956C789.288 333.606 787.18 330.231 786.925 327.808C786.008 308.446 815.376 299.676 822.906 302.096L823.317 306.397L845.326 318.658L848.114 317.578L846.967 316.402L847.44 314.903L846.029 315.352L841.188 311.305L840.889 309.666L840.36 309.835C840.414 308.083 839.729 306.375 838.406 305.254L839.75 304.441L840.721 305.674L841.536 305.029L842.507 306.261L843.498 305.56L844.712 307.101L845.846 306.161L855.581 309.421L855.671 310.934L857.853 310.625ZM839.864 310.185L839.179 308.476L838.298 308.757L837.437 307.104L836.555 307.385L836.346 307.259L837.833 306.207C839.123 307.145 839.775 308.672 839.864 310.185ZM839.793 303.657L833.745 307.316L846.571 317.299L845.865 317.523L826.238 306.045L825.638 299.685C823.367 298.481 815.882 298.359 808.763 300.24C787.759 305.77 782.179 318.143 781.2 320.96C781.2 320.96 773.78 318.119 772.413 317.784C765.644 316.47 750.093 318.145 750.093 318.145C750.093 318.145 766.285 318.964 769.857 320.139C772.834 321.118 783.27 334.366 786.249 338.427C779.943 336.581 789.595 347.574 792.211 352.714C793.757 356.076 794.983 359.732 795.856 363.5C806.583 366.058 828.457 374.509 839.14 377.853C844.288 379.489 856.944 382.397 860.669 382.367C861.97 382.338 863.825 386.372 863.87 388.67C863.617 389.328 862.945 389.735 862.449 390.086C862.294 388.208 861.962 386.387 861.31 384.86C860.858 384.426 860.263 384.231 859.844 383.979C859.667 384.035 859.491 384.091 859.491 384.091C859.91 384.343 860.362 384.777 860.781 385.029C861.466 386.738 861.655 388.797 861.634 390.73C860.786 391.193 859.871 391.292 859.066 390.97C859.12 389.219 858.964 387.341 858.28 385.633C857.828 385.198 857.409 384.946 856.813 384.751C856.637 384.807 856.461 384.863 856.461 384.863C856.88 385.115 857.332 385.549 857.751 385.801C858.226 387.384 858.382 389.261 857.942 390.942C855.307 390.818 853.003 389.432 851.833 387.107C851.876 386.322 851.92 385.538 851.963 384.753C849.383 382.877 834.757 383.487 836.078 381.525C832.682 380.293 818.77 376.63 807.514 374.24C794.12 371.374 787.837 370.677 782.8 371.702C780.832 361.924 772.007 352.402 758.316 350.98L758.273 351.764C762.021 352.883 765.307 354.535 768.197 357.083C765.896 361.862 754.658 367.751 752.895 368.312C737.045 368.348 724.001 345.911 706.821 335.58C697.812 330.163 692.532 330.88 687.266 333.713C673.957 358.951 658.5 368.303 657.937 368.289C650.993 367.032 612.165 373.033 612.165 373.033C604.642 379.86 593.847 390.232 591.987 393.329C591.271 394.521 587.975 393.836 586.365 393.192C586.089 392.702 585.99 392.155 586.066 391.553C587.466 392.071 589.01 392.35 590.696 392.391C591.225 392.223 591.721 391.872 592.184 391.34C592.25 391.704 592.217 391.522 592.217 391.522C591.721 391.872 591.192 392.041 590.663 392.209C588.977 392.168 587.4 391.706 585.967 391.007C586.01 390.222 586.406 389.325 587.045 388.737C588.302 389.493 589.879 389.954 591.356 389.869C591.885 389.701 592.381 389.35 592.876 389C593.053 388.944 593.019 388.762 592.986 388.58C592.49 388.93 591.962 389.098 591.433 389.267C590.099 389.113 587.475 388.022 587.408 387.658C588.873 385.457 591.032 383.999 593.424 383.816C593.876 384.25 594.471 384.446 595.276 384.768L612.524 365.79C613.571 366.42 615.368 366.041 618.608 365.395C630.51 363.147 647.404 357.577 649.001 356.105C650.741 354.395 656.076 338.632 670.428 324.237C686.411 308.552 747.324 314.21 754.54 309.793C778.14 294.959 806.989 285.39 811.806 285.206C811.532 287.798 815.984 285.61 815.641 284.755C814.791 282.136 807.558 278.273 807.558 278.273C816.013 279.628 817.799 280.215 821.825 284.906L823.522 283.981C831.172 285.014 838.559 287.672 845.23 291.521C845.782 292.502 845.981 293.595 846.18 294.687C846.18 294.687 859.952 301.671 863.723 303.939C863.702 305.872 861.356 308.353 861.356 308.353L859.759 309.825L839.793 303.657Z" fill="black"/>
<path d="M841.844 298.506L833.251 293.813L832.572 294.235C834.021 295.988 834.825 298.354 834.915 300.951L837.587 301.096C836.453 300.049 835.821 298.638 835.903 296.995L838.211 298.268C837.6 299.072 837.772 300.026 838.267 300.674L841.844 298.506Z" fill="black"/>
<path d="M648.459 406.825L647.048 407.274L646.915 406.544L650.443 405.421L650.576 406.151L649.165 406.6L649.828 410.249L648.946 410.53L648.283 406.881L648.459 406.825ZM651.502 405.084L652.384 404.803L654.016 406.6L655.03 403.961L655.912 403.68L656.708 408.059L655.826 408.34L655.262 405.238L654.425 407.821L652.616 406.081L653.18 409.183L652.298 409.463L651.502 405.084Z" fill="white"/>
<path d="M48.1787 246.246C40.0179 246.246 32.4935 244.15 25.6055 239.957C18.7923 235.764 13.3268 230.187 9.20898 223.224C5.16602 216.186 3.14453 208.474 3.14453 200.089V189.532C3.14453 188.709 3.51888 188.297 4.26758 188.297H30.0977C30.6966 188.297 30.9961 188.709 30.9961 189.532V200.089C30.9961 205.105 32.6807 209.448 36.0498 213.116C39.4189 216.71 43.4619 218.507 48.1787 218.507C52.9704 218.507 57.0508 216.673 60.4199 213.004C63.7891 209.26 65.4736 204.955 65.4736 200.089C65.4736 194.474 61.805 189.57 54.4678 185.377C53.2699 184.628 51.6976 183.73 49.751 182.682C47.8792 181.559 45.6331 180.286 43.0127 178.863C40.3923 177.441 37.8467 176.056 35.376 174.708C32.9053 173.285 30.5094 171.938 28.1885 170.665C19.8031 165.724 13.5514 159.547 9.43359 152.135C5.39062 144.648 3.36914 136.262 3.36914 126.979C3.36914 118.443 5.46549 110.732 9.6582 103.844C13.8509 97.0306 19.3164 91.64 26.0547 87.6719C32.8678 83.6289 40.2425 81.6074 48.1787 81.6074C56.3395 81.6074 63.8265 83.6289 70.6396 87.6719C77.4528 91.7897 82.8809 97.2552 86.9238 104.068C91.0417 110.882 93.1006 118.518 93.1006 126.979V145.846C93.1006 146.445 92.8011 146.744 92.2021 146.744H66.3721C65.7731 146.744 65.4736 146.445 65.4736 145.846L65.249 126.979C65.249 121.588 63.5645 117.208 60.1953 113.839C56.8262 110.47 52.8206 108.785 48.1787 108.785C43.4619 108.785 39.4189 110.582 36.0498 114.176C32.6807 117.77 30.9961 122.037 30.9961 126.979C30.9961 131.995 32.0443 136.188 34.1406 139.557C36.3118 142.926 40.2425 146.145 45.9326 149.215C46.5316 149.514 47.9167 150.263 50.0879 151.461C52.2591 152.659 54.6549 154.007 57.2754 155.504C59.9707 156.926 62.404 158.237 64.5752 159.435C66.7464 160.558 68.0566 161.231 68.5059 161.456C76.1426 165.724 82.1696 170.965 86.5869 177.179C91.0791 183.393 93.3252 191.03 93.3252 200.089C93.3252 208.849 91.3037 216.71 87.2607 223.673C83.1429 230.636 77.6774 236.139 70.8643 240.182C64.0511 244.225 56.4893 246.246 48.1787 246.246ZM147.011 246.246C138.925 246.246 131.438 244.15 124.55 239.957C117.662 235.764 112.159 230.149 108.042 223.111C103.999 215.999 101.977 208.25 101.977 199.864L102.426 84.8643C102.426 84.2653 102.726 83.9658 103.325 83.9658H129.155C129.754 83.9658 130.053 84.2653 130.053 84.8643V199.864C130.053 205.03 131.7 209.448 134.995 213.116C138.289 216.71 142.295 218.507 147.011 218.507C151.953 218.507 156.071 216.71 159.365 213.116C162.659 209.448 164.306 205.03 164.306 199.864V84.8643C164.306 84.2653 164.606 83.9658 165.205 83.9658H191.035C191.634 83.9658 191.933 84.2653 191.933 84.8643L192.382 199.864C192.382 208.325 190.361 216.111 186.318 223.224C182.2 230.261 176.735 235.877 169.921 240.069C163.108 244.187 155.472 246.246 147.011 246.246ZM232.817 244H206.762C206.163 244 205.863 243.626 205.863 242.877L206.313 84.8643C206.313 84.2653 206.612 83.9658 207.211 83.9658H253.705C262.016 83.9658 269.653 85.9873 276.615 90.0303C283.578 94.0732 289.119 99.5013 293.237 106.314C297.429 113.128 299.526 120.839 299.526 129.449C299.526 135.064 298.665 140.156 296.943 144.723C295.221 149.29 293.199 153.146 290.878 156.29C288.632 159.435 286.573 161.756 284.701 163.253C293.012 172.462 297.167 183.281 297.167 195.709L297.392 242.877C297.392 243.626 297.017 244 296.269 244H270.214C269.615 244 269.316 243.775 269.316 243.326V195.709C269.316 190.169 267.369 185.377 263.476 181.334C259.583 177.291 254.791 175.27 249.101 175.27H233.94L233.715 242.877C233.715 243.626 233.416 244 232.817 244ZM253.705 111.48H233.94V147.643H253.705C258.422 147.643 262.615 145.883 266.283 142.364C270.027 138.845 271.899 134.54 271.899 129.449C271.899 124.583 270.102 120.39 266.508 116.871C262.914 113.277 258.647 111.48 253.705 111.48ZM387.465 244H313.119C312.52 244 312.221 243.626 312.221 242.877L312.445 84.8643C312.445 84.2653 312.745 83.9658 313.344 83.9658H387.24C387.839 83.9658 388.138 84.3402 388.138 85.0889V110.807C388.138 111.406 387.839 111.705 387.24 111.705H340.072V147.643H387.24C387.839 147.643 388.138 147.942 388.138 148.541L388.363 174.596C388.363 175.195 388.064 175.494 387.465 175.494H340.072V215.699H387.465C388.064 215.699 388.363 216.074 388.363 216.822V243.102C388.363 243.701 388.064 244 387.465 244ZM429.246 244H406.224C405.026 244 404.427 243.476 404.427 242.428L404.203 85.7627C404.203 84.5648 404.802 83.9658 405.999 83.9658H426.776L465.633 174.596L464.51 85.7627C464.51 84.5648 465.184 83.9658 466.532 83.9658H489.329C490.228 83.9658 490.677 84.5648 490.677 85.7627L490.902 242.652C490.902 243.551 490.527 244 489.779 244H469.564L429.696 159.322L431.38 242.203C431.38 243.401 430.669 244 429.246 244ZM548.631 243.775L507.415 244C506.666 244 506.292 243.626 506.292 242.877L506.741 84.8643C506.741 84.2653 507.041 83.9658 507.64 83.9658L550.652 83.7412C559.188 83.5166 566.899 85.4632 573.787 89.5811C580.75 93.6989 586.29 99.2767 590.408 106.314C594.601 113.277 596.697 120.989 596.697 129.449V195.484C596.697 204.319 594.563 212.405 590.296 219.742C585.953 227.005 580.188 232.807 573.001 237.149C565.813 241.417 557.69 243.626 548.631 243.775ZM550.652 111.256L534.593 111.48L534.368 215.699H548.631C554.321 215.699 559.113 213.715 563.006 209.747C566.899 205.779 568.846 201.025 568.846 195.484V129.225C568.846 124.358 567.049 120.128 563.455 116.534C559.861 112.866 555.594 111.106 550.652 111.256ZM637.131 244H611.077C610.478 244 610.178 243.626 610.178 242.877L610.628 84.8643C610.628 84.2653 610.927 83.9658 611.526 83.9658H658.02C666.331 83.9658 673.967 85.9873 680.93 90.0303C687.893 94.0732 693.434 99.5013 697.551 106.314C701.744 113.128 703.84 120.839 703.84 129.449C703.84 135.064 702.979 140.156 701.257 144.723C699.535 149.29 697.514 153.146 695.193 156.29C692.947 159.435 690.888 161.756 689.016 163.253C697.327 172.462 701.482 183.281 701.482 195.709L701.707 242.877C701.707 243.626 701.332 244 700.584 244H674.529C673.93 244 673.63 243.775 673.63 243.326V195.709C673.63 190.169 671.684 185.377 667.791 181.334C663.897 177.291 659.106 175.27 653.416 175.27H638.255L638.03 242.877C638.03 243.626 637.73 244 637.131 244ZM658.02 111.48H638.255V147.643H658.02C662.737 147.643 666.93 145.883 670.598 142.364C674.342 138.845 676.214 134.54 676.214 129.449C676.214 124.583 674.417 120.39 670.823 116.871C667.229 113.277 662.962 111.48 658.02 111.48ZM708.786 242.877L737.312 84.8643C737.461 84.2653 737.836 83.9658 738.435 83.9658H771.789C772.388 83.9658 772.763 84.2653 772.912 84.8643L800.315 242.877C800.39 243.626 800.09 244 799.416 244H773.923C773.174 244 772.763 243.626 772.688 242.877L770.217 226.031H738.884L736.413 242.877C736.338 243.626 735.964 244 735.29 244H709.685C709.086 244 708.786 243.626 708.786 242.877ZM753.82 136.861L743.488 201.437H765.612L756.179 136.861L754.831 128.326L753.82 136.861Z" fill="#A4133C"/>
</g>
<defs>
<filter id="filter0_d_9_3" x="4.71219" y="261.237" width="519.353" height="152.647" filterUnits="userSpaceOnUse" color-interpolation-filters="sRGB">
<feFlood flood-opacity="0" result="BackgroundImageFix"/>
<feColorMatrix in="SourceAlpha" type="matrix" values="0 0 0 0 0 0 0 0 0 0 0 0 0 0 0 0 0 0 127 0" result="hardAlpha"/>
<feOffset dy="4"/>
<feGaussianBlur stdDeviation="2"/>
<feComposite in2="hardAlpha" operator="out"/>
<feColorMatrix type="matrix" values="0 0 0 0 0 0 0 0 0 0 0 0 0 0 0 0 0 0 0.25 0"/>
<feBlend mode="normal" in2="BackgroundImageFix" result="effect1_dropShadow_9_3"/>
<feBlend mode="normal" in="SourceGraphic" in2="effect1_dropShadow_9_3" result="shape"/>
</filter>
<clipPath id="clip0_9_3">
<rect width="889" height="478" fill="white"/>
</clipPath>
</defs>
</svg>
